<svg width="56" height="56" viewBox="0 0 56 56" fill="none" xmlns="http://www.w3.org/2000/svg">
<path d="M21.8455 0.320068H20.8539C15.4837 0.327816 10.3346 2.4595 6.53039 6.24987C2.72616 10.0402 0.575693 15.1815 0.54834 20.5517C0.553847 22.3616 0.797676 24.163 1.27354 25.9093C2.1383 29.08 3.7614 31.9928 6.00284 34.3964C8.24428 36.8 11.0368 38.6222 14.1395 39.706C17.2422 40.7897 20.562 41.1025 23.8125 40.6172C27.063 40.1319 30.1467 38.8632 32.7975 36.9205L50.5575 54.6805C50.9015 55.023 51.3671 55.2153 51.8525 55.2153C52.338 55.2153 52.8036 55.023 53.1475 54.6805L54.9827 52.8453C55.3253 52.5013 55.5176 52.0357 55.5176 51.5503C55.5176 51.0649 55.3253 50.5992 54.9827 50.2553L37.2227 32.4953C39.3765 29.5419 40.6912 26.0608 41.0275 22.421C41.3639 18.7812 40.7092 15.1182 39.133 11.8202C37.5568 8.52213 35.1178 5.71194 32.0744 3.68736C29.0309 1.66279 25.4965 0.499261 21.8455 0.320068ZM20.8539 34.6413C18.3103 34.6465 15.8131 33.9608 13.6287 32.6575C11.4444 31.3542 9.65499 29.4822 8.45154 27.2413C7.37093 25.2197 6.80661 22.9624 6.80874 20.6701C6.80248 18.5072 7.29739 16.3724 8.25464 14.4329C9.2119 12.4934 10.6055 10.8021 12.3261 9.49158C14.0467 8.18107 16.0475 7.28699 18.1716 6.87949C20.2957 6.47199 22.4853 6.56214 24.5687 7.14287C27.8559 8.03352 30.707 10.0894 32.5901 12.9272C34.4732 15.7649 35.2599 19.1907 34.8033 22.5657C34.3468 25.9407 32.6783 29.0344 30.1089 31.2699C27.5396 33.5053 24.2448 34.7299 20.8391 34.7153L20.8539 34.6413Z" fill="#6F00FF"/>
</svg>
